<?xml version="1.0" standalone="no"?>
<!DOCTYPE svg PUBLIC "-//W3C//DTD SVG 20010904//EN"
 "http://www.w3.org/TR/2001/REC-SVG-20010904/DTD/svg10.dtd">
<svg version="1.0" xmlns="http://www.w3.org/2000/svg"
 width="1161.000000pt" height="1161.000000pt" viewBox="0 0 1161.000000 1161.000000"
 preserveAspectRatio="xMidYMid meet">
<metadata>
Created by potrace 1.11, written by Peter Selinger 2001-2013
</metadata>
<g transform="translate(0.000000,1161.000000) scale(0.100000,-0.100000)"
fill="#000000" stroke="none">
<path d="M8400 10085 c-11 -13 -145 -15 -981 -15 l-969 0 5 -502 c2 -277 7
-768 10 -1093 4 -324 8 -802 10 -1062 2 -259 6 -477 11 -484 4 -7 3 -10 -2 -6
-5 3 -8 -11 -7 -31 7 -97 7 -132 0 -132 -5 0 -5 -5 -1 -12 4 -6 8 -194 10
-417 1 -223 5 -685 8 -1026 12 -1214 16 -1627 21 -2185 3 -311 8 -767 10
-1013 2 -246 6 -451 9 -456 5 -8 360 -6 373 2 5 3 8 108 7 234 -3 266 -12
1282 -19 1998 -3 275 -7 753 -10 1063 -2 310 -7 567 -10 572 -4 6 -1 10 5 10
6 0 8 5 5 11 -4 5 -9 211 -11 457 -4 493 -11 1264 -19 2167 -11 1181 -13 1515
-6 1516 20 3 1139 4 1152 1 15 -3 17 -23 17 -153 1 -82 3 -153 7 -158 3 -5 1
-12 -5 -16 -6 -4 -8 -10 -5 -15 3 -5 8 -332 10 -727 5 -681 7 -1070 20 -2808
3 -407 7 -1018 9 -1358 2 -340 7 -621 10 -624 3 -3 1 -13 -4 -23 -5 -10 -7
-19 -5 -22 4 -4 12 -861 17 -1926 l2 -282 25 -1 c22 0 163 1 324 3 20 0 37 5
37 12 1 37 -3 669 -15 2236 -3 382 -6 702 -5 710 1 66 -1 104 -6 111 -3 5 0 9
6 9 7 0 8 6 0 19 -6 12 -6 22 -1 25 5 3 5 21 1 41 -4 20 -4 38 1 41 5 3 7 10
3 15 -3 6 -8 273 -9 594 l-4 583 97 -1 c101 0 350 11 392 17 14 3 54 7 90 11
77 7 115 12 195 27 33 6 71 12 83 13 13 2 45 8 70 14 26 6 58 13 72 15 14 3
77 19 140 36 63 17 120 33 125 34 6 2 17 6 25 9 8 3 44 15 80 27 36 11 72 24
80 27 8 3 20 7 26 8 5 2 30 12 54 24 24 11 49 21 55 21 5 0 26 8 45 19 19 10
46 22 60 26 14 4 33 14 43 23 9 8 17 13 17 9 0 -11 227 117 338 190 148 98
264 193 387 317 118 119 132 136 208 241 31 44 60 85 64 91 49 67 172 324 189
394 2 8 10 40 19 70 9 30 18 66 21 80 2 14 6 34 9 46 10 47 19 133 20 196 0
38 2 68 5 68 13 0 -9 217 -32 320 -5 25 -12 54 -14 65 -7 34 -52 174 -70 213
-88 198 -181 349 -306 496 -56 66 -201 207 -273 266 -44 36 -82 68 -85 71 -12
14 -249 169 -259 169 -6 0 -11 3 -11 8 0 4 -10 12 -23 18 -12 6 -80 40 -152
77 -162 81 -474 204 -561 221 -11 2 -39 10 -64 17 -51 14 -63 17 -87 23 -10 3
-20 5 -23 6 -3 1 -8 2 -12 1 -3 0 -29 6 -57 14 -27 9 -53 15 -58 14 -4 -1 -11
0 -15 1 -16 5 -24 7 -73 15 -27 4 -59 9 -70 12 -11 2 -38 6 -60 9 -22 3 -50 7
-63 10 -21 4 -43 7 -192 20 -36 3 -156 7 -267 9 -167 3 -203 2 -213 -10z m423
-470 c39 -3 92 -8 117 -11 44 -4 95 -11 135 -18 11 -2 42 -7 68 -10 51 -8 75
-12 117 -21 14 -3 34 -7 45 -9 11 -3 47 -12 80 -21 33 -9 69 -18 80 -20 54
-12 218 -65 290 -96 17 -6 35 -13 40 -14 21 -5 204 -90 275 -128 229 -123 484
-326 605 -481 17 -22 40 -51 51 -65 86 -105 205 -365 219 -476 2 -11 6 -38 10
-60 15 -76 9 -289 -9 -362 -3 -13 -8 -33 -11 -45 -11 -49 -59 -183 -66 -186
-5 -2 -9 -12 -9 -23 0 -10 -5 -19 -12 -19 -6 0 -9 -3 -5 -6 3 -3 -5 -24 -19
-45 -13 -21 -24 -43 -24 -48 0 -5 -3 -11 -7 -13 -5 -1 -25 -28 -45 -58 -21
-30 -46 -66 -55 -80 -21 -31 -225 -234 -273 -273 -117 -94 -457 -297 -498
-297 -7 0 -12 -5 -12 -10 0 -6 -3 -9 -7 -8 -5 1 -19 -4 -33 -9 -70 -30 -238
-94 -255 -97 -11 -2 -32 -9 -48 -15 -22 -9 -113 -33 -207 -57 -48 -11 -152
-33 -186 -38 -49 -8 -90 -15 -129 -21 -16 -3 -55 -8 -85 -11 -30 -2 -73 -7
-95 -10 -83 -10 -435 -16 -436 -8 -1 11 -7 767 -15 1914 -3 487 -7 971 -8
1076 l-1 190 173 -2 c95 -1 205 -5 245 -9z"/>
<path d="M2513 9798 c-6 -24 -23 -83 -37 -133 -15 -49 -29 -97 -31 -105 -2 -8
-13 -46 -25 -85 -12 -38 -23 -77 -25 -86 -2 -9 -13 -49 -26 -90 -12 -41 -24
-80 -25 -87 -1 -6 -14 -49 -27 -95 -32 -104 -257 -877 -262 -897 -1 -8 -15
-55 -30 -105 -15 -49 -31 -103 -35 -120 -5 -16 -21 -70 -35 -120 -15 -49 -35
-119 -45 -155 -10 -36 -26 -90 -35 -120 -9 -30 -19 -64 -22 -75 -3 -11 -16
-57 -30 -102 -14 -46 -26 -89 -27 -95 -1 -7 -12 -47 -25 -88 -12 -41 -29 -100
-38 -130 -8 -30 -18 -62 -21 -70 -3 -8 -6 -19 -7 -25 -7 -31 -48 -162 -53
-170 -4 -5 -8 -19 -9 -30 -2 -11 -26 -99 -54 -195 -27 -96 -52 -183 -54 -193
-2 -10 -9 -35 -16 -55 -10 -31 -17 -54 -19 -65 0 -1 -14 -47 -31 -102 -17 -55
-32 -109 -35 -121 -2 -12 -10 -40 -19 -63 -8 -23 -15 -43 -15 -46 0 -3 -2 -10
-5 -17 -2 -7 -18 -65 -35 -128 -18 -63 -43 -151 -57 -195 -13 -44 -26 -89 -29
-99 -2 -10 -8 -33 -14 -51 -6 -18 -13 -41 -15 -51 -7 -32 -105 -368 -112 -384
-7 -19 -10 -28 -17 -59 -3 -13 -10 -38 -16 -56 -6 -18 -13 -41 -15 -51 -2 -10
-28 -98 -56 -194 -28 -96 -52 -179 -54 -185 -1 -5 -5 -17 -8 -25 -3 -8 -13
-42 -22 -75 -19 -72 -11 -45 -85 -295 -33 -113 -62 -212 -64 -220 -2 -9 -23
-80 -46 -159 -23 -79 -43 -149 -44 -155 -1 -6 -5 -17 -9 -24 -5 -7 -10 -25
-13 -40 -3 -15 -11 -47 -18 -72 -8 -25 -23 -77 -35 -116 -12 -40 -23 -80 -26
-90 -2 -11 -13 -48 -24 -84 -11 -35 -18 -66 -16 -69 3 -2 1 -9 -4 -15 -5 -6
-32 -92 -61 -191 -80 -278 -94 -326 -155 -535 -31 -107 -58 -199 -59 -205 -2
-5 -11 -37 -21 -70 -10 -33 -20 -64 -21 -70 -1 -5 -16 -59 -34 -120 -17 -60
-38 -131 -45 -157 -7 -25 -16 -51 -19 -57 -9 -14 14 -24 129 -56 55 -15 105
-30 110 -34 6 -3 19 -7 30 -8 11 -2 32 -8 47 -14 41 -17 56 -6 73 58 9 32 39
135 67 228 28 94 52 177 53 185 2 8 4 15 5 15 1 0 3 7 5 15 1 8 13 49 25 90
12 41 23 80 24 85 2 6 13 44 25 85 13 41 24 80 26 85 1 6 7 28 13 50 6 22 12
43 12 47 0 4 8 27 16 50 9 24 17 52 19 62 3 10 9 33 15 51 6 18 12 41 15 51 2
10 14 51 25 89 12 39 35 117 52 175 16 58 36 128 45 155 8 28 22 77 30 110 9
33 19 62 22 65 4 3 6 12 6 20 0 8 8 40 18 70 11 30 20 62 22 70 2 8 15 56 30
105 15 50 28 97 30 105 1 8 5 22 8 30 9 22 58 191 63 219 3 13 10 34 16 45 6
12 11 23 10 26 -3 7 41 160 94 332 13 43 25 88 28 100 2 13 12 45 21 72 9 26
18 56 20 65 2 9 11 41 20 71 9 30 17 62 19 70 2 8 11 40 20 70 9 30 17 60 17
65 1 6 6 21 11 35 10 25 84 277 118 400 10 36 26 89 35 119 9 30 18 62 20 70
2 9 17 61 34 116 17 55 30 100 30 100 -1 0 9 33 21 74 12 41 23 81 25 90 2 9
14 48 25 86 12 39 28 92 35 119 17 61 22 66 31 30 4 -16 9 -33 13 -39 3 -5 6
-14 6 -20 1 -5 4 -17 7 -25 4 -8 20 -60 37 -115 16 -55 42 -140 57 -190 16
-49 28 -92 29 -95 1 -3 6 -21 12 -40 42 -133 65 -207 68 -220 3 -14 61 -201
136 -445 18 -55 36 -116 42 -135 5 -19 12 -42 15 -50 7 -22 11 -33 15 -50 2
-8 7 -22 10 -30 8 -22 31 -93 33 -105 1 -5 12 -44 25 -85 13 -41 24 -77 24
-80 1 -3 14 -45 30 -95 16 -49 30 -93 31 -97 1 -5 2 -9 4 -10 1 -2 3 -11 5
-21 4 -20 52 -180 65 -217 5 -14 26 -79 46 -145 50 -168 71 -235 94 -310 11
-36 29 -94 40 -130 36 -117 61 -200 65 -215 2 -8 25 -80 50 -160 25 -80 47
-152 49 -160 2 -8 39 -127 81 -265 42 -137 79 -257 80 -265 2 -8 13 -42 23
-75 21 -62 73 -230 79 -253 2 -6 5 -20 7 -30 3 -9 5 -17 6 -17 1 0 3 -7 5 -15
2 -8 28 -93 57 -187 l53 -173 106 0 c73 0 118 5 143 15 20 8 38 15 41 15 14
-1 95 23 95 28 0 8 -30 123 -37 142 -4 8 -7 20 -8 25 -2 6 -8 30 -15 55 -7 25
-13 50 -15 55 -1 6 -5 17 -8 25 -6 13 -31 105 -42 150 -2 8 -4 15 -5 15 -2 0
-11 37 -12 52 -1 7 -7 14 -15 17 -7 3 -13 11 -13 18 0 7 -15 62 -34 123 -19
60 -49 157 -66 215 -17 58 -34 112 -37 120 -4 8 -7 20 -8 25 0 6 -4 17 -8 25
-5 13 -39 126 -42 140 0 3 -8 28 -17 55 -9 28 -33 104 -53 170 -20 66 -46 149
-57 185 -11 36 -21 70 -23 75 -1 6 -4 17 -7 25 -8 21 -42 133 -44 145 -1 6
-15 53 -32 105 -16 52 -40 129 -52 170 -12 41 -24 82 -28 90 -3 8 -6 20 -8 25
-1 6 -14 46 -27 90 -60 192 -99 321 -102 335 -2 8 -10 35 -18 60 -33 100 -130
416 -132 430 0 3 -5 19 -12 35 -13 35 -46 144 -49 163 -1 8 -6 21 -10 30 -4 9
-8 22 -9 28 -3 11 -38 127 -107 349 -22 72 -41 135 -43 140 -1 6 -10 37 -20
70 -11 33 -20 62 -20 65 -1 3 -4 12 -8 20 -7 16 -26 89 -28 105 0 6 -5 16 -11
23 -6 6 -7 12 -4 12 4 0 2 9 -4 21 -6 11 -13 28 -15 38 -2 10 -47 159 -100
332 -53 173 -112 366 -131 429 -20 63 -41 134 -49 157 -12 39 -11 49 26 175
22 73 42 144 45 157 3 13 9 32 15 43 5 10 8 18 5 18 -3 0 4 25 14 55 10 30 16
55 13 55 -3 0 -1 6 5 13 6 7 12 24 14 37 2 14 7 30 10 36 4 6 9 21 12 35 2 13
13 56 24 94 39 136 111 381 137 465 14 47 28 96 31 110 2 14 12 47 20 73 9 26
17 53 18 60 2 7 6 19 9 27 12 29 67 233 67 246 0 27 16 13 27 -23 6 -21 20
-69 32 -108 12 -38 23 -78 26 -88 2 -10 16 -56 30 -102 15 -47 28 -91 29 -97
2 -7 11 -40 22 -73 10 -33 19 -64 20 -70 1 -5 3 -13 4 -17 1 -5 3 -11 5 -15 1
-5 4 -15 8 -23 5 -12 21 -66 33 -112 1 -5 2 -9 4 -10 1 -2 3 -10 5 -18 2 -8
20 -71 40 -140 46 -156 66 -222 69 -235 1 -5 14 -48 28 -95 23 -74 60 -195 63
-210 1 -3 7 -25 15 -50 7 -25 15 -49 16 -55 2 -5 21 -73 44 -150 23 -77 45
-153 50 -170 5 -16 13 -45 19 -63 5 -18 11 -36 12 -40 4 -17 8 -28 14 -47 3
-11 6 -21 6 -22 0 -2 4 -15 9 -30 24 -80 82 -279 84 -288 2 -11 50 -166 71
-234 8 -24 12 -47 9 -52 -3 -5 -1 -9 4 -9 5 0 14 -21 20 -47 16 -61 15 -59 52
-183 17 -58 33 -112 35 -120 2 -8 4 -15 5 -15 1 0 3 -7 5 -15 2 -8 13 -46 25
-85 20 -64 35 -117 44 -155 2 -8 13 -44 24 -80 11 -36 31 -103 45 -150 14 -47
35 -119 48 -160 13 -41 24 -80 25 -86 1 -6 13 -48 27 -95 42 -138 71 -234 73
-241 1 -5 3 -11 4 -15 1 -5 3 -12 5 -18 1 -5 3 -13 5 -17 1 -5 3 -11 4 -15 2
-5 9 -28 16 -53 7 -25 14 -48 16 -52 1 -5 2 -9 4 -10 1 -2 3 -10 5 -18 1 -8
20 -71 40 -140 20 -69 39 -132 41 -140 2 -8 14 -51 28 -95 28 -92 147 -495
150 -510 4 -16 63 -214 74 -245 3 -8 6 -19 7 -25 2 -5 13 -44 26 -85 12 -41
23 -80 25 -85 2 -13 35 -124 42 -145 8 -25 22 -71 37 -130 2 -8 4 -16 5 -17 2
-2 3 -6 4 -10 1 -5 12 -41 25 -82 12 -41 24 -81 26 -90 2 -9 9 -32 15 -51 6
-19 19 -64 30 -100 10 -36 32 -110 48 -165 17 -55 47 -156 67 -225 20 -69 50
-169 66 -223 l31 -99 111 5 c62 2 119 6 127 9 8 2 44 13 78 23 60 17 64 20 59
44 -10 51 -18 85 -23 92 -3 6 -51 164 -69 229 -8 28 -33 115 -65 220 -17 58
-35 119 -40 135 -5 17 -22 77 -40 135 -17 58 -33 112 -35 120 -13 49 -87 298
-94 315 -5 11 -19 58 -32 105 -12 47 -33 119 -46 160 -13 41 -25 82 -27 90 -1
8 -13 49 -25 90 -13 41 -25 82 -26 90 -2 8 -4 16 -5 18 -2 1 -3 5 -4 10 -1 4
-11 39 -23 77 -21 66 -82 268 -87 290 -1 6 -9 30 -16 55 -8 25 -15 52 -17 60
-1 8 -14 53 -29 100 -39 129 -63 208 -84 280 -10 36 -29 102 -43 148 -14 45
-25 85 -26 87 -1 3 -3 10 -6 17 -2 7 -11 40 -20 73 -10 33 -24 80 -32 105 -8
25 -16 53 -18 63 -2 10 -15 55 -29 100 -14 45 -35 114 -46 152 -12 39 -24 79
-26 90 -3 11 -7 27 -9 35 -2 8 -4 16 -5 18 -2 1 -3 5 -4 10 -7 27 -29 100 -36
117 -4 11 -22 72 -40 135 -18 63 -42 143 -52 178 -11 34 -21 68 -22 75 -2 6
-11 39 -21 72 -11 33 -19 62 -20 65 -1 3 -9 32 -19 65 -10 33 -20 68 -21 78
-2 9 -6 21 -9 26 -3 5 -12 33 -20 62 -40 148 -87 306 -96 321 -6 10 -10 25
-10 33 0 19 -37 141 -52 172 -6 13 -9 26 -5 29 3 4 1 16 -5 27 -9 18 -29 80
-42 137 -2 8 -11 35 -20 60 -9 25 -16 54 -16 66 0 11 -4 24 -9 30 -4 5 -13 27
-18 49 -9 36 -46 161 -133 455 -16 52 -46 156 -68 230 -22 74 -52 176 -67 225
-15 50 -28 97 -30 105 -2 8 -14 51 -28 95 -14 44 -27 89 -30 100 -3 11 -20 67
-37 125 -56 186 -111 374 -126 429 -8 29 -17 57 -20 62 -3 5 -7 17 -9 26 -1
10 -11 45 -21 78 -10 33 -19 62 -19 65 -7 27 -27 98 -32 110 -3 8 -7 20 -8 25
-2 6 -11 37 -21 70 -10 33 -19 65 -20 70 -4 19 -64 220 -78 265 -8 25 -34 110
-57 190 -23 80 -45 148 -49 153 -4 4 -11 -12 -17 -35z"/>
</g>
</svg>
